<svg xmlns="http://www.w3.org/2000/svg" xmlns:xlink="http://www.w3.org/1999/xlink" width="500" zoomAndPan="magnify" viewBox="0 0 375 374.999991" height="500" preserveAspectRatio="xMidYMid meet" version="1.2"><defs><clipPath id="03abc7db19"><path d="M 86.3125 40.703125 L 187.5 40.703125 L 187.5 308.394531 L 86.3125 308.394531 Z M 86.3125 40.703125 "/></clipPath></defs><g id="82de90a0bd"><rect x="0" width="375" y="0" height="374.999991" style="fill:#ffffff;fill-opacity:1;stroke:none;"/><rect x="0" width="375" y="0" height="374.999991" style="fill:#000000;fill-opacity:1;stroke:none;"/><g style="fill:#ffffff;fill-opacity:1;"><g transform="translate(82.612521, 301.992227)"><path style="stroke:none" d="M 133.703125 -175.53125 C 131.941406 -183.644531 128.863281 -189.734375 124.46875 -193.796875 C 120.082031 -197.859375 113.828125 -199.890625 105.703125 -199.890625 C 93.191406 -199.890625 84.191406 -194.457031 78.703125 -183.59375 C 73.210938 -172.726562 70.359375 -155.546875 70.140625 -132.046875 C 74.972656 -139.734375 81.941406 -145.769531 91.046875 -150.15625 C 100.160156 -154.550781 110.207031 -156.75 121.1875 -156.75 C 142.695312 -156.75 159.984375 -149.941406 173.046875 -136.328125 C 186.109375 -122.722656 192.640625 -103.734375 192.640625 -79.359375 C 192.640625 -63.335938 189.398438 -49.285156 182.921875 -37.203125 C 176.453125 -25.128906 167.015625 -15.691406 154.609375 -8.890625 C 142.203125 -2.085938 127.550781 1.3125 110.65625 1.3125 C 76.84375 1.3125 53.347656 -9.273438 40.171875 -30.453125 C 27.003906 -51.640625 20.421875 -82.101562 20.421875 -121.84375 C 20.421875 -163.5625 27.390625 -194.570312 41.328125 -214.875 C 55.265625 -235.1875 77.601562 -245.34375 108.34375 -245.34375 C 124.8125 -245.34375 138.695312 -242.101562 150 -235.625 C 161.3125 -229.144531 169.875 -220.632812 175.6875 -210.09375 C 181.507812 -199.5625 184.96875 -188.039062 186.0625 -175.53125 Z M 107.6875 -112.296875 C 98.25 -112.296875 90.398438 -109.492188 84.140625 -103.890625 C 77.878906 -98.296875 74.75 -90.335938 74.75 -80.015625 C 74.75 -69.484375 77.65625 -61.253906 83.46875 -55.328125 C 89.289062 -49.398438 97.582031 -46.4375 108.34375 -46.4375 C 118 -46.4375 125.625 -49.34375 131.21875 -55.15625 C 136.820312 -60.976562 139.625 -68.9375 139.625 -79.03125 C 139.625 -89.351562 136.878906 -97.476562 131.390625 -103.40625 C 125.898438 -109.332031 118 -112.296875 107.6875 -112.296875 Z M 107.6875 -112.296875 "/></g></g><g clip-rule="nonzero" clip-path="url(#03abc7db19)"><path style=" stroke:none;fill-rule:nonzero;fill:#000000;fill-opacity:1;" d="M 86.3125 40.703125 L 187.5 40.703125 L 187.5 308.296875 L 86.3125 308.296875 Z M 86.3125 40.703125 "/></g><g style="fill:#ffffff;fill-opacity:1;"><g transform="translate(176.045194, 305.182744)"><path style="stroke:none" d="M 0.171875 -7.640625 C 0.171875 -6.398438 -0.03125 -5.285156 -0.4375 -4.296875 C -0.84375 -3.316406 -1.4375 -2.53125 -2.21875 -1.9375 C -3.007812 -1.351562 -3.960938 -1.046875 -5.078125 -1.015625 L -5.078125 -5.421875 C -4.453125 -5.484375 -3.972656 -5.695312 -3.640625 -6.0625 C -3.304688 -6.4375 -3.140625 -6.921875 -3.140625 -7.515625 C -3.140625 -8.128906 -3.28125 -8.613281 -3.5625 -8.96875 C -3.84375 -9.320312 -4.234375 -9.5 -4.734375 -9.5 C -5.148438 -9.5 -5.492188 -9.359375 -5.765625 -9.078125 C -6.046875 -8.796875 -6.273438 -8.445312 -6.453125 -8.03125 C -6.628906 -7.625 -6.832031 -7.039062 -7.0625 -6.28125 C -7.394531 -5.1875 -7.726562 -4.289062 -8.0625 -3.59375 C -8.40625 -2.90625 -8.90625 -2.3125 -9.5625 -1.8125 C -10.226562 -1.3125 -11.09375 -1.0625 -12.15625 -1.0625 C -13.738281 -1.0625 -14.972656 -1.632812 -15.859375 -2.78125 C -16.753906 -3.925781 -17.203125 -5.414062 -17.203125 -7.25 C -17.203125 -9.125 -16.753906 -10.628906 -15.859375 -11.765625 C -14.972656 -12.910156 -13.734375 -13.523438 -12.140625 -13.609375 L -12.140625 -9.140625 C -12.679688 -9.109375 -13.109375 -8.90625 -13.421875 -8.53125 C -13.742188 -8.164062 -13.90625 -7.691406 -13.90625 -7.109375 C -13.90625 -6.609375 -13.769531 -6.203125 -13.5 -5.890625 C -13.226562 -5.585938 -12.847656 -5.4375 -12.359375 -5.4375 C -11.804688 -5.4375 -11.375 -5.691406 -11.0625 -6.203125 C -10.757812 -6.722656 -10.429688 -7.53125 -10.078125 -8.625 C -9.710938 -9.71875 -9.359375 -10.609375 -9.015625 -11.296875 C -8.679688 -11.984375 -8.191406 -12.578125 -7.546875 -13.078125 C -6.898438 -13.578125 -6.066406 -13.828125 -5.046875 -13.828125 C -4.085938 -13.828125 -3.210938 -13.582031 -2.421875 -13.09375 C -1.628906 -12.601562 -1 -11.890625 -0.53125 -10.953125 C -0.0625 -10.015625 0.171875 -8.910156 0.171875 -7.640625 Z M 0.171875 -7.640625 "/></g></g><g style="fill:#ffffff;fill-opacity:1;"><g transform="translate(176.045194, 291.772593)"><path style="stroke:none" d="M -3 -12.0625 L -3 -5.734375 L 0 -4.71875 L 0 -0.390625 L -16.96875 -6.53125 L -16.96875 -11.3125 L 0 -17.453125 L 0 -13.078125 Z M -6.1875 -11 L -12.40625 -8.890625 L -6.1875 -6.8125 Z M -6.1875 -11 "/></g></g><g style="fill:#ffffff;fill-opacity:1;"><g transform="translate(176.045194, 275.414431)"><path style="stroke:none" d="M 0 -16.671875 L 0 -12.546875 L -10.46875 -5.625 L 0 -5.625 L 0 -1.5 L -16.96875 -1.5 L -16.96875 -5.625 L -6.453125 -12.546875 L -16.96875 -12.546875 L -16.96875 -16.671875 Z M 0 -16.671875 "/></g></g><g style="fill:#ffffff;fill-opacity:1;"><g transform="translate(176.045194, 258.693813)"><path style="stroke:none" d="M -16.96875 -7.859375 C -16.96875 -9.640625 -16.613281 -11.195312 -15.90625 -12.53125 C -15.195312 -13.875 -14.203125 -14.910156 -12.921875 -15.640625 C -11.640625 -16.378906 -10.160156 -16.75 -8.484375 -16.75 C -6.828125 -16.75 -5.351562 -16.378906 -4.0625 -15.640625 C -2.769531 -14.910156 -1.769531 -13.875 -1.0625 -12.53125 C -0.351562 -11.1875 0 -9.628906 0 -7.859375 L 0 -1.5 L -16.96875 -1.5 Z M -3.578125 -7.59375 C -3.578125 -9.15625 -4.003906 -10.367188 -4.859375 -11.234375 C -5.710938 -12.109375 -6.921875 -12.546875 -8.484375 -12.546875 C -10.046875 -12.546875 -11.257812 -12.109375 -12.125 -11.234375 C -13 -10.367188 -13.4375 -9.15625 -13.4375 -7.59375 L -13.4375 -5.625 L -3.578125 -5.625 Z M -3.578125 -7.59375 "/></g></g><g style="fill:#ffffff;fill-opacity:1;"><g transform="translate(176.045194, 242.577295)"><path style="stroke:none" d="M -16.96875 -5.5625 L -6.8125 -5.5625 C -5.800781 -5.5625 -5.019531 -5.8125 -4.46875 -6.3125 C -3.925781 -6.8125 -3.65625 -7.546875 -3.65625 -8.515625 C -3.65625 -9.472656 -3.925781 -10.207031 -4.46875 -10.71875 C -5.019531 -11.238281 -5.800781 -11.5 -6.8125 -11.5 L -16.96875 -11.5 L -16.96875 -15.640625 L -6.84375 -15.640625 C -5.320312 -15.640625 -4.035156 -15.316406 -2.984375 -14.671875 C -1.941406 -14.023438 -1.15625 -13.15625 -0.625 -12.0625 C -0.09375 -10.976562 0.171875 -9.769531 0.171875 -8.4375 C 0.171875 -7.101562 -0.0859375 -5.90625 -0.609375 -4.84375 C -1.140625 -3.789062 -1.929688 -2.957031 -2.984375 -2.34375 C -4.035156 -1.726562 -5.320312 -1.421875 -6.84375 -1.421875 L -16.96875 -1.421875 Z M -16.96875 -5.5625 "/></g></g><g style="fill:#ffffff;fill-opacity:1;"><g transform="translate(176.045194, 226.992388)"><path style="stroke:none" d="M 0.171875 -7.640625 C 0.171875 -6.398438 -0.03125 -5.285156 -0.4375 -4.296875 C -0.84375 -3.316406 -1.4375 -2.53125 -2.21875 -1.9375 C -3.007812 -1.351562 -3.960938 -1.046875 -5.078125 -1.015625 L -5.078125 -5.421875 C -4.453125 -5.484375 -3.972656 -5.695312 -3.640625 -6.0625 C -3.304688 -6.4375 -3.140625 -6.921875 -3.140625 -7.515625 C -3.140625 -8.128906 -3.28125 -8.613281 -3.5625 -8.96875 C -3.84375 -9.320312 -4.234375 -9.5 -4.734375 -9.5 C -5.148438 -9.5 -5.492188 -9.359375 -5.765625 -9.078125 C -6.046875 -8.796875 -6.273438 -8.445312 -6.453125 -8.03125 C -6.628906 -7.625 -6.832031 -7.039062 -7.0625 -6.28125 C -7.394531 -5.1875 -7.726562 -4.289062 -8.0625 -3.59375 C -8.40625 -2.90625 -8.90625 -2.3125 -9.5625 -1.8125 C -10.226562 -1.3125 -11.09375 -1.0625 -12.15625 -1.0625 C -13.738281 -1.0625 -14.972656 -1.632812 -15.859375 -2.78125 C -16.753906 -3.925781 -17.203125 -5.414062 -17.203125 -7.25 C -17.203125 -9.125 -16.753906 -10.628906 -15.859375 -11.765625 C -14.972656 -12.910156 -13.734375 -13.523438 -12.140625 -13.609375 L -12.140625 -9.140625 C -12.679688 -9.109375 -13.109375 -8.90625 -13.421875 -8.53125 C -13.742188 -8.164062 -13.90625 -7.691406 -13.90625 -7.109375 C -13.90625 -6.609375 -13.769531 -6.203125 -13.5 -5.890625 C -13.226562 -5.585938 -12.847656 -5.4375 -12.359375 -5.4375 C -11.804688 -5.4375 -11.375 -5.691406 -11.0625 -6.203125 C -10.757812 -6.722656 -10.429688 -7.53125 -10.078125 -8.625 C -9.710938 -9.71875 -9.359375 -10.609375 -9.015625 -11.296875 C -8.679688 -11.984375 -8.191406 -12.578125 -7.546875 -13.078125 C -6.898438 -13.578125 -6.066406 -13.828125 -5.046875 -13.828125 C -4.085938 -13.828125 -3.210938 -13.582031 -2.421875 -13.09375 C -1.628906 -12.601562 -1 -11.890625 -0.53125 -10.953125 C -0.0625 -10.015625 0.171875 -8.910156 0.171875 -7.640625 Z M 0.171875 -7.640625 "/></g></g><g style="fill:#ffffff;fill-opacity:1;"><g transform="translate(176.045194, 213.582236)"><path style="stroke:none" d="M -16.96875 -16.1875 L 0 -16.1875 L 0 -12.0625 L -6.984375 -12.0625 L -6.984375 -5.625 L 0 -5.625 L 0 -1.5 L -16.96875 -1.5 L -16.96875 -5.625 L -10.328125 -5.625 L -10.328125 -12.0625 L -16.96875 -12.0625 Z M -16.96875 -16.1875 "/></g></g><g style="fill:#ffffff;fill-opacity:1;"><g transform="translate(176.045194, 197.369061)"><path style="stroke:none" d="M -16.96875 -5.625 L 0 -5.625 L 0 -1.5 L -16.96875 -1.5 Z M -16.96875 -5.625 "/></g></g><g style="fill:#ffffff;fill-opacity:1;"><g transform="translate(175.399373, 187.498392)"><path style="stroke:none" d="M -16.28125 -6.46875 C -16.28125 -9.226562 -15.5625 -11.351562 -14.125 -12.84375 C -12.6875 -14.332031 -10.6875 -15.078125 -8.125 -15.078125 C -5.550781 -15.078125 -3.550781 -14.332031 -2.125 -12.84375 C -0.707031 -11.351562 0 -9.226562 0 -6.46875 L 0 -1.90625 L -16.28125 -1.90625 Z M -0.875 -6.46875 C -0.875 -8.925781 -1.507812 -10.796875 -2.78125 -12.078125 C -4.0625 -13.367188 -5.84375 -14.015625 -8.125 -14.015625 C -10.414062 -14.015625 -12.203125 -13.367188 -13.484375 -12.078125 C -14.765625 -10.796875 -15.40625 -8.925781 -15.40625 -6.46875 L -15.40625 -2.953125 L -0.875 -2.953125 Z M -0.875 -6.46875 "/></g></g><g style="fill:#ffffff;fill-opacity:1;"><g transform="translate(175.399373, 172.563613)"><path style="stroke:none" d="M -16.28125 -2.953125 L 0 -2.953125 L 0 -1.90625 L -16.28125 -1.90625 Z M -16.28125 -2.953125 "/></g></g><g style="fill:#ffffff;fill-opacity:1;"><g transform="translate(175.399373, 169.08541)"><path style="stroke:none" d="M 0.15625 -6.609375 C 0.15625 -5.554688 -0.0234375 -4.632812 -0.390625 -3.84375 C -0.765625 -3.0625 -1.269531 -2.445312 -1.90625 -2 C -2.539062 -1.5625 -3.242188 -1.3125 -4.015625 -1.25 L -4.015625 -2.34375 C -3.160156 -2.46875 -2.398438 -2.863281 -1.734375 -3.53125 C -1.078125 -4.207031 -0.75 -5.234375 -0.75 -6.609375 C -0.75 -7.410156 -0.894531 -8.109375 -1.1875 -8.703125 C -1.476562 -9.304688 -1.878906 -9.769531 -2.390625 -10.09375 C -2.898438 -10.414062 -3.460938 -10.578125 -4.078125 -10.578125 C -4.867188 -10.578125 -5.492188 -10.382812 -5.953125 -10 C -6.421875 -9.625 -6.769531 -9.15625 -7 -8.59375 C -7.238281 -8.03125 -7.488281 -7.269531 -7.75 -6.3125 C -8.03125 -5.257812 -8.304688 -4.410156 -8.578125 -3.765625 C -8.859375 -3.128906 -9.289062 -2.585938 -9.875 -2.140625 C -10.457031 -1.703125 -11.25 -1.484375 -12.25 -1.484375 C -13.019531 -1.484375 -13.726562 -1.6875 -14.375 -2.09375 C -15.019531 -2.507812 -15.523438 -3.09375 -15.890625 -3.84375 C -16.265625 -4.601562 -16.453125 -5.476562 -16.453125 -6.46875 C -16.453125 -7.90625 -16.09375 -9.066406 -15.375 -9.953125 C -14.664062 -10.835938 -13.796875 -11.363281 -12.765625 -11.53125 L -12.765625 -10.421875 C -13.179688 -10.328125 -13.601562 -10.117188 -14.03125 -9.796875 C -14.46875 -9.484375 -14.828125 -9.035156 -15.109375 -8.453125 C -15.398438 -7.878906 -15.546875 -7.1875 -15.546875 -6.375 C -15.546875 -5.289062 -15.25 -4.378906 -14.65625 -3.640625 C -14.0625 -2.898438 -13.269531 -2.53125 -12.28125 -2.53125 C -11.488281 -2.53125 -10.851562 -2.722656 -10.375 -3.109375 C -9.90625 -3.492188 -9.550781 -3.96875 -9.3125 -4.53125 C -9.070312 -5.101562 -8.828125 -5.867188 -8.578125 -6.828125 C -8.285156 -7.890625 -8.003906 -8.734375 -7.734375 -9.359375 C -7.460938 -9.984375 -7.035156 -10.515625 -6.453125 -10.953125 C -5.878906 -11.398438 -5.097656 -11.625 -4.109375 -11.625 C -3.378906 -11.625 -2.6875 -11.429688 -2.03125 -11.046875 C -1.382812 -10.660156 -0.859375 -10.09375 -0.453125 -9.34375 C -0.046875 -8.59375 0.15625 -7.679688 0.15625 -6.609375 Z M 0.15625 -6.609375 "/></g></g><g style="fill:#ffffff;fill-opacity:1;"><g transform="translate(175.399373, 157.629348)"><path style="stroke:none" d="M 0.15625 -6.609375 C 0.15625 -5.554688 -0.0234375 -4.632812 -0.390625 -3.84375 C -0.765625 -3.0625 -1.269531 -2.445312 -1.90625 -2 C -2.539062 -1.5625 -3.242188 -1.3125 -4.015625 -1.25 L -4.015625 -2.34375 C -3.160156 -2.46875 -2.398438 -2.863281 -1.734375 -3.53125 C -1.078125 -4.207031 -0.75 -5.234375 -0.75 -6.609375 C -0.75 -7.410156 -0.894531 -8.109375 -1.1875 -8.703125 C -1.476562 -9.304688 -1.878906 -9.769531 -2.390625 -10.09375 C -2.898438 -10.414062 -3.460938 -10.578125 -4.078125 -10.578125 C -4.867188 -10.578125 -5.492188 -10.382812 -5.953125 -10 C -6.421875 -9.625 -6.769531 -9.15625 -7 -8.59375 C -7.238281 -8.03125 -7.488281 -7.269531 -7.75 -6.3125 C -8.03125 -5.257812 -8.304688 -4.410156 -8.578125 -3.765625 C -8.859375 -3.128906 -9.289062 -2.585938 -9.875 -2.140625 C -10.457031 -1.703125 -11.25 -1.484375 -12.25 -1.484375 C -13.019531 -1.484375 -13.726562 -1.6875 -14.375 -2.09375 C -15.019531 -2.507812 -15.523438 -3.09375 -15.890625 -3.84375 C -16.265625 -4.601562 -16.453125 -5.476562 -16.453125 -6.46875 C -16.453125 -7.90625 -16.09375 -9.066406 -15.375 -9.953125 C -14.664062 -10.835938 -13.796875 -11.363281 -12.765625 -11.53125 L -12.765625 -10.421875 C -13.179688 -10.328125 -13.601562 -10.117188 -14.03125 -9.796875 C -14.46875 -9.484375 -14.828125 -9.035156 -15.109375 -8.453125 C -15.398438 -7.878906 -15.546875 -7.1875 -15.546875 -6.375 C -15.546875 -5.289062 -15.25 -4.378906 -14.65625 -3.640625 C -14.0625 -2.898438 -13.269531 -2.53125 -12.28125 -2.53125 C -11.488281 -2.53125 -10.851562 -2.722656 -10.375 -3.109375 C -9.90625 -3.492188 -9.550781 -3.96875 -9.3125 -4.53125 C -9.070312 -5.101562 -8.828125 -5.867188 -8.578125 -6.828125 C -8.285156 -7.890625 -8.003906 -8.734375 -7.734375 -9.359375 C -7.460938 -9.984375 -7.035156 -10.515625 -6.453125 -10.953125 C -5.878906 -11.398438 -5.097656 -11.625 -4.109375 -11.625 C -3.378906 -11.625 -2.6875 -11.429688 -2.03125 -11.046875 C -1.382812 -10.660156 -0.859375 -10.09375 -0.453125 -9.34375 C -0.046875 -8.59375 0.15625 -7.679688 0.15625 -6.609375 Z M 0.15625 -6.609375 "/></g></g><g style="fill:#ffffff;fill-opacity:1;"><g transform="translate(175.399373, 146.173287)"><path style="stroke:none" d="M -4.171875 -11.140625 L -4.171875 -3.40625 L 0 -1.859375 L 0 -0.71875 L -15.921875 -6.703125 L -15.921875 -7.859375 L 0 -13.828125 L 0 -12.6875 Z M -5.0625 -10.8125 L -14.546875 -7.28125 L -5.0625 -3.734375 Z M -5.0625 -10.8125 "/></g></g><g style="fill:#ffffff;fill-opacity:1;"><g transform="translate(175.399373, 133.024243)"><path style="stroke:none" d="M 0 -13.546875 L 0 -12.5 L -14.578125 -2.953125 L 0 -2.953125 L 0 -1.90625 L -16.265625 -1.90625 L -16.265625 -2.953125 L -1.734375 -12.5 L -16.265625 -12.5 L -16.265625 -13.546875 Z M 0 -13.546875 "/></g></g><g style="fill:#ffffff;fill-opacity:1;"><g transform="translate(175.399373, 118.947542)"><path style="stroke:none" d="M -4.171875 -11.140625 L -4.171875 -3.40625 L 0 -1.859375 L 0 -0.71875 L -15.921875 -6.703125 L -15.921875 -7.859375 L 0 -13.828125 L 0 -12.6875 Z M -5.0625 -10.8125 L -14.546875 -7.28125 L -5.0625 -3.734375 Z M -5.0625 -10.8125 "/></g></g><g style="fill:#ffffff;fill-opacity:1;"><g transform="translate(175.399373, 105.798499)"><path style="stroke:none" d="M -16.28125 -11.953125 L -6.59375 -6.828125 L 0 -6.828125 L 0 -5.78125 L -6.59375 -5.78125 L -16.28125 -0.609375 L -16.28125 -1.78125 L -7.5625 -6.28125 L -16.28125 -10.765625 Z M -16.28125 -11.953125 "/></g></g><g style="fill:#ffffff;fill-opacity:1;"><g transform="translate(175.399373, 94.643921)"><path style="stroke:none" d="M -4.171875 -11.140625 L -4.171875 -3.40625 L 0 -1.859375 L 0 -0.71875 L -15.921875 -6.703125 L -15.921875 -7.859375 L 0 -13.828125 L 0 -12.6875 Z M -5.0625 -10.8125 L -14.546875 -7.28125 L -5.0625 -3.734375 Z M -5.0625 -10.8125 "/></g></g><g style="fill:#ffffff;fill-opacity:1;"><g transform="translate(175.399373, 81.494877)"><path style="stroke:none" d="M 0 -10.4375 L -7.6875 -2.953125 L 0 -2.953125 L 0 -1.90625 L -16.28125 -1.90625 L -16.28125 -2.953125 L -8.53125 -2.953125 L -16.28125 -10.4375 L -16.28125 -11.78125 L -8.125 -3.859375 L 0 -11.8125 Z M 0 -10.4375 "/></g></g><g style="fill:#ffffff;fill-opacity:1;"><g transform="translate(175.399373, 70.572213)"><path style="stroke:none" d="M -15.40625 -2.953125 L -8.609375 -2.953125 L -8.609375 -9.4375 L -7.734375 -9.4375 L -7.734375 -2.953125 L -0.875 -2.953125 L -0.875 -10.140625 L 0 -10.140625 L 0 -1.90625 L -16.28125 -1.90625 L -16.28125 -10.140625 L -15.40625 -10.140625 Z M -15.40625 -2.953125 "/></g></g></g></svg>